<?xml version="1.0" standalone="no"?>
<!DOCTYPE svg PUBLIC "-//W3C//DTD SVG 20010904//EN"
 "http://www.w3.org/TR/2001/REC-SVG-20010904/DTD/svg10.dtd">
<svg version="1.0" xmlns="http://www.w3.org/2000/svg"
 width="200.000000pt" height="200.000000pt" viewBox="0 0 200.000000 200.000000"
 preserveAspectRatio="xMidYMid meet">

<g transform="translate(0.000000,200.000000) scale(0.100000,-0.100000)"
fill="#000000" stroke="none">
<path d="M0 1000 l0 -1000 1000 0 1000 0 0 1000 0 1000 -1000 0 -1000 0 0
-1000z m1110 128 l0 -303 -147 -147 c-81 -82 -150 -148 -153 -148 -3 0 -5 134
-5 297 l0 298 -150 3 -149 3 149 149 150 150 152 0 153 0 0 -302z m293 288
c56 -24 80 -59 84 -124 4 -60 -13 -109 -36 -104 -7 1 -10 -2 -7 -7 7 -10 -29
-35 -64 -44 -31 -8 -99 9 -126 32 -43 35 -66 109 -48 155 3 9 11 13 17 9 6 -3
7 -1 3 5 -12 20 14 53 57 73 50 22 77 24 120 5z"/>
<path d="M1378 1408 c5 -5 16 -8 23 -6 8 3 3 7 -10 11 -17 4 -21 3 -13 -5z"/>
<path d="M1407 1379 c7 -7 15 -10 18 -7 3 3 -2 9 -12 12 -14 6 -15 5 -6 -5z"/>
<path d="M1214 1289 c-3 -6 -2 -15 3 -20 5 -5 9 -1 9 11 0 23 -2 24 -12 9z"/>
<path d="M1360 1170 c-8 -5 -10 -10 -5 -10 6 0 17 5 25 10 8 5 11 10 5 10 -5
0 -17 -5 -25 -10z"/>
</g>
</svg>
