<?xml version="1.0" encoding="UTF-8"?>
<!DOCTYPE svg PUBLIC "-//W3C//DTD SVG 1.1//EN" "http://www.w3.org/Graphics/SVG/1.1/DTD/svg11.dtd">
<svg xmlns="http://www.w3.org/2000/svg" version="1.1" width="200px" height="200px" style="shape-rendering:geometricPrecision; text-rendering:geometricPrecision; image-rendering:optimizeQuality; fill-rule:evenodd; clip-rule:evenodd" xmlns:xlink="http://www.w3.org/1999/xlink">
<g><path style="opacity:0.067" fill="#330a0f" d="M 136.5,55.5 C 138.483,55.1568 139.817,55.8235 140.5,57.5C 140.167,57.5 139.833,57.5 139.5,57.5C 138.5,56.8333 137.5,56.1667 136.5,55.5 Z"/></g>
<g><path style="opacity:1" fill="#050525" d="M 79.5,55.5 C 89.8387,55.3335 100.172,55.5002 110.5,56C 111.659,76.4269 111.826,96.9269 111,117.5C 100.986,127.681 90.8192,137.681 80.5,147.5C 79.5004,127.511 79.167,107.511 79.5,87.5C 69.4778,87.8319 59.4778,87.4985 49.5,86.5C 59.5213,76.146 69.5213,65.8127 79.5,55.5 Z"/></g>
<g><path style="opacity:1" fill="#bc533e" d="M 136.5,55.5 C 137.5,56.1667 138.5,56.8333 139.5,57.5C 135.833,57.5 132.167,57.5 128.5,57.5C 130.635,55.631 133.302,54.9644 136.5,55.5 Z"/></g>
<g><path style="opacity:1" fill="#9b483b" d="M 124.5,59.5 C 124.5,60.8333 123.833,61.5 122.5,61.5C 122.5,60.1667 123.167,59.5 124.5,59.5 Z"/></g>
<g><path style="opacity:1" fill="#9e4534" d="M 143.5,59.5 C 146.142,59.4877 147.475,60.821 147.5,63.5C 145.5,62.8333 144.167,61.5 143.5,59.5 Z"/></g>
<g><path style="opacity:1" fill="#f86419" d="M 128.5,57.5 C 132.167,57.5 135.833,57.5 139.5,57.5C 139.833,57.5 140.167,57.5 140.5,57.5C 142.179,57.2852 143.179,57.9519 143.5,59.5C 144.167,61.5 145.5,62.8333 147.5,63.5C 149.047,65.8066 149.713,68.4733 149.5,71.5C 149.92,75.3741 148.92,78.7074 146.5,81.5C 145.5,81.8333 144.833,82.5 144.5,83.5C 143.221,84.968 141.554,85.6347 139.5,85.5C 135.833,85.5 132.167,85.5 128.5,85.5C 119.801,81.6027 116.801,74.936 119.5,65.5C 121.446,64.9653 122.446,63.632 122.5,61.5C 123.833,61.5 124.5,60.8333 124.5,59.5C 125.183,57.8235 126.517,57.1568 128.5,57.5 Z"/></g>
<g><path style="opacity:1" fill="#8e3d2e" d="M 122.5,61.5 C 122.446,63.632 121.446,64.9653 119.5,65.5C 119.554,63.368 120.554,62.0347 122.5,61.5 Z"/></g>
<g><path style="opacity:0.141" fill="#2a0201" d="M 146.5,81.5 C 146.5,82.8333 145.833,83.5 144.5,83.5C 144.833,82.5 145.5,81.8333 146.5,81.5 Z"/></g>
<g><path style="opacity:0.612" fill="#73291f" d="M 128.5,85.5 C 132.167,85.5 135.833,85.5 139.5,85.5C 138.306,86.7773 136.64,87.4439 134.5,87.5C 132.833,87.3333 131.167,87.1667 129.5,87C 128.944,86.6174 128.611,86.1174 128.5,85.5 Z"/></g>
</svg>
